<?xml version="1.0" encoding="UTF-8"?>
<svg version="1.1" xmlns="http://www.w3.org/2000/svg" width="400" height="400">
<path d="M0 0 C132 0 264 0 400 0 C400 132 400 264 400 400 C268 400 136 400 0 400 C0 268 0 136 0 0 Z " fill="#000000" transform="translate(0,0)"/>
<path d="M0 0 C4.44462652 1.9528242 7.54311226 4.16818934 10.9667511 7.5925293 C11.42852995 8.05033374 11.89030879 8.50813818 12.36608094 8.97981548 C13.90008765 10.5042548 15.42321184 12.03910761 16.9465332 13.57421875 C18.0486019 14.67385774 19.15131572 15.77285049 20.25462341 16.87124634 C23.24052334 19.84776103 26.21695804 22.83357612 29.19149041 25.82144547 C32.3065603 28.9478473 35.42935527 32.06651614 38.55107117 35.1862793 C43.7890264 40.42335243 49.02097587 45.6663665 54.24926758 50.91308594 C60.29713915 56.98215142 66.35382169 63.04231117 72.41541415 69.09767056 C78.24644582 74.9230128 84.07179873 80.75400037 89.89436913 86.58779907 C92.37306658 89.07114529 94.85364326 91.55259188 97.33571815 94.03256226 C100.25501239 96.9499763 103.16927788 99.87232228 106.07969093 102.79859543 C107.14988422 103.87303931 108.2217889 104.94578161 109.29549789 106.01671219 C110.75772826 107.47573147 112.21368551 108.94073261 113.66816711 110.4074707 C114.89398483 111.63636772 114.89398483 111.63636772 116.14456654 112.89009094 C119.49604281 116.70122742 119.34095221 120.64380924 119.27734375 125.4921875 C118.86211988 129.246747 117.54415341 131.25499237 115 134 C110.85190559 136.89401936 107.25233909 137.36270818 102.34375 137.49609375 C96.98894659 136.36266036 92.92930794 132.18026505 89.16059875 128.42129517 C88.23954346 127.50732468 87.31848816 126.59335419 86.36952209 125.65168762 C85.36644195 124.64631415 84.36347008 123.64083264 83.3605957 122.63525391 C82.29110489 121.57011462 81.22119831 120.50539266 80.15090942 119.4410553 C77.25588128 116.55937833 74.36725052 113.67136957 71.48016 110.78174257 C69.0663702 108.36688081 66.64960539 105.95500719 64.23288792 103.54307592 C58.53140542 97.85267434 52.83525033 92.15697833 47.14233398 86.45800781 C41.27408531 80.58371455 35.39670848 74.71866913 29.51480609 68.85804999 C24.45872818 63.81959389 19.40848283 58.77534332 14.36283559 53.72644174 C11.35195004 50.71374473 8.33889072 47.70330694 5.32015419 44.69847488 C2.48248423 41.87338865 -0.34782314 39.0411265 -3.1726799 36.2032299 C-4.20890556 35.16464044 -5.24768254 34.12858913 -6.28921318 33.09531975 C-7.71361074 31.68140654 -9.12782803 30.25725979 -10.54154968 28.83267212 C-11.33479487 28.03959467 -12.12804007 27.24651722 -12.94532299 26.42940712 C-16.07405464 22.73006026 -17.82508206 19.37435524 -18.4375 14.5625 C-17.72602924 8.76909525 -15.59058404 5.40983586 -11.25 1.5625 C-7.34254322 -0.31608499 -4.25847469 -0.86891671 0 0 Z " fill="#FCFCFC" transform="translate(139,82)"/>
<path d="M0 0 C4.97113861 3.0123083 8.75319772 7.00767349 12.83453369 11.11740112 C13.76854004 12.04615051 14.70254639 12.9748999 15.66485596 13.93179321 C18.21704521 16.47034776 20.75970386 19.01824978 23.300313 21.56838751 C25.96410281 24.23979161 28.63522612 26.90384691 31.30517578 29.5690918 C35.78586682 34.04433139 40.26020974 38.52584479 44.73101807 43.01095581 C49.89687206 48.19314509 55.07345814 53.36442502 60.25573182 58.53019035 C64.70979209 62.97063025 69.1579714 67.41689781 73.60130095 71.86807549 C76.25302524 74.52447197 78.90672327 77.17881141 81.56574249 79.82790756 C84.52857001 82.78044824 87.47896968 85.74511169 90.42828369 88.71115112 C91.30933777 89.58613251 92.19039185 90.46111389 93.09814453 91.36260986 C93.89998169 92.17290649 94.70181885 92.98320312 95.5279541 93.8180542 C96.22625462 94.51748579 96.92455513 95.21691738 97.64401627 95.93754387 C101.25430455 100.3363117 101.86351619 104.44744991 101.37261963 110.04367065 C99.64180689 114.68953642 97.668938 117.52191856 93.37261963 120.04367065 C88.51580308 121.3543827 84.77860526 121.64449161 80.21274757 119.26715088 C75.91496863 116.40960635 72.42077768 112.49542916 68.80303955 108.84640503 C67.84875176 107.89454762 66.89381894 106.94333651 65.93829346 105.99272156 C63.35527335 103.4190771 60.78171771 100.83615907 58.2100656 98.25116158 C55.51540885 95.54516313 52.81301746 92.84690833 50.11170959 90.14755249 C45.57992916 85.61665379 41.05415566 81.07982315 36.53204346 76.53927612 C31.3021453 71.28818029 26.06343925 66.04600191 20.81981772 60.80861235 C15.77367043 55.76815552 10.733206 50.72205443 5.6955204 45.67314148 C3.55175196 43.5247261 1.40610812 41.37820972 -0.74103737 39.23316956 C-3.26636267 36.70972522 -5.78664797 34.18135272 -8.30309296 31.64905357 C-9.67002923 30.27583957 -11.04188573 28.90752885 -12.41386414 27.53935242 C-13.22274078 26.72339096 -14.03161743 25.9074295 -14.86500549 25.06674194 C-15.57160214 24.35809242 -16.2781988 23.6494429 -17.00620747 22.91931915 C-20.18354118 19.24323921 -19.96547014 15.18167996 -19.90472412 10.55148315 C-19.48950025 6.79692366 -18.17153378 4.78867828 -15.62738037 2.04367065 C-10.52519155 -1.35778856 -5.82319485 -2.11956068 0 0 Z " fill="#FDFDFD" transform="translate(143.62738037109375,149.95632934570313)"/>
<path d="M0 0 C0.82242188 -0.02835938 1.64484375 -0.05671875 2.4921875 -0.0859375 C9.15318891 1.08023189 13.99754823 6.96103185 18.56738281 11.55859375 C19.64652451 12.63247849 19.64652451 12.63247849 20.74746704 13.72805786 C23.11272625 16.08454856 25.47063468 18.44823901 27.828125 20.8125 C29.47356424 22.45659149 31.11930023 24.10038603 32.76531982 25.74389648 C36.20813675 29.183769 39.64732046 32.62722272 43.08398438 36.07324219 C47.4912486 40.49191839 51.90745433 44.90153168 56.32640457 49.30851746 C59.72373053 52.69862174 63.11628515 56.0934685 66.50740814 59.48977661 C68.13425602 61.1179592 69.76259239 62.7446559 71.39243317 64.36984253 C73.66655895 66.63889623 75.9341866 68.91425024 78.20019531 71.19140625 C78.87553314 71.86269562 79.55087097 72.53398499 80.24667358 73.22561646 C80.86339935 73.84798187 81.48012512 74.47034729 82.11553955 75.11157227 C82.6516045 75.64839127 83.18766945 76.18521027 83.73997879 76.73829651 C86.9990495 80.58959667 87.63000537 84.06823404 87.5 88.9921875 C86.83913342 93.1914439 85.00372635 96.28598885 82.125 99.375 C77.43618219 102.1535587 73.5389937 103.06405374 68.125 102.375 C62.8736171 99.36340077 58.8439697 95.38420129 54.59082031 91.11547852 C53.86163895 90.39140808 53.13245758 89.66733765 52.38117981 88.92132568 C49.98332162 86.53731673 47.59291344 84.14600257 45.203125 81.75390625 C43.53519292 80.08986249 41.86703777 78.42604229 40.19866943 76.76243591 C36.70862018 73.27983797 33.22245861 69.793403 29.73876953 66.30444336 C25.27268208 61.83255037 20.79530821 57.37215029 16.31474686 52.91476536 C12.86947061 49.4842107 9.43113525 46.04676513 5.99477386 42.60728264 C4.34647993 40.9595023 2.69581902 39.31408616 1.04276276 37.67108345 C-1.26485483 35.37578737 -3.5627473 33.07117194 -5.85839844 30.76391602 C-6.88543129 29.74834877 -6.88543129 29.74834877 -7.93321228 28.71226501 C-12.41118477 24.18404794 -14.53047316 21.00201718 -15.375 14.5625 C-15.25838003 9.44093968 -12.44258733 5.86076193 -8.875 2.375 C-5.89842516 0.48861101 -3.50344612 0.05457081 0 0 Z " fill="#FDFDFD" transform="translate(142.875,216.625)"/>
<path d="M0 0 C1.41732422 -0.03867188 1.41732422 -0.03867188 2.86328125 -0.078125 C8.77702869 0.60894939 12.51982174 4.792248 16.54760742 8.85131836 C17.11083206 9.41103836 17.6740567 9.97075836 18.25434875 10.54743958 C20.1056018 12.38992504 21.94948391 14.2395883 23.79296875 16.08984375 C25.08111338 17.37664049 26.36955472 18.66314027 27.65827942 19.94935608 C30.35382016 22.64195245 33.04572078 25.3381225 35.73510742 28.03686523 C39.18170995 31.49487327 42.63722852 34.94380997 46.09551525 38.39012814 C48.75596628 41.04335186 51.41163501 43.70132106 54.06588173 46.3607502 C55.33826221 47.63446416 56.61212819 48.90669598 57.88750267 50.17741203 C59.66841285 51.95324152 61.44278323 53.73535912 63.21557617 55.51928711 C63.74287323 56.04253571 64.27017029 56.5657843 64.81344604 57.10488892 C68.47165247 60.80576153 70.46444944 63.31689517 71.0625 68.5 C70.54132666 73.71173336 69.13068187 78.09104968 65.109375 81.64453125 C60.95927175 84.28975472 57.49698342 84.93706906 52.6875 84.25 C47.60102593 81.69340591 43.69738058 78.69625799 39.69213867 74.64282227 C39.13837555 74.0943161 38.58461243 73.54580994 38.0140686 72.98068237 C36.20363242 71.18334492 34.4042692 69.37538314 32.60546875 67.56640625 C31.34274822 66.30570877 30.07958281 65.04545674 28.81599426 63.78562927 C26.17784608 61.15189023 23.54516585 58.51283632 20.91625977 55.86987305 C17.54936377 52.48585102 14.16913012 49.11552359 10.78470898 45.74903965 C8.17732526 43.15250175 5.57713543 40.54885448 2.97905922 37.94300652 C1.73533498 36.69728432 0.4893874 35.45377773 -0.75882912 34.21255684 C-2.50129259 32.47772461 -4.23382989 30.7335436 -5.96411133 28.98657227 C-6.47891556 28.47784073 -6.99371979 27.96910919 -7.52412415 27.44496155 C-11.72582405 23.16799448 -13.58343938 19.34966449 -13.8125 13.375 C-13.73852198 8.42587041 -12.21580878 6.01305853 -8.8203125 2.52734375 C-5.92788751 0.07702517 -3.71185488 0.06027369 0 0 Z " fill="#FCFCFC" transform="translate(199.3125,81.75)"/>
<path d="M0 0 C4.09475455 2.35069243 6.43972263 4.61968115 8.375 8.9375 C9.43885061 14.18582965 8.299103 18.50092993 5.375 22.9375 C1.01435813 26.87271339 -1.58480283 28.24929669 -7.53125 28.15234375 C-12.11636259 27.68185645 -14.91427034 25.7250653 -17.9375 22.375 C-21.03658224 17.89854787 -21.26714742 14.30078758 -20.625 8.9375 C-16.18635692 -0.1105032 -9.47295414 -2.77655552 0 0 Z " fill="#F9F9F9" transform="translate(270.625,83.0625)"/>
<path d="M0 0 C3.47798373 2.06899246 5.75119165 4.62678748 8 8 C8.70880848 13.25012791 8.62519342 17.70330253 6.3125 22.5 C2.43760619 26.68907439 -0.23777313 28.17259515 -5.9375 28.4375 C-10.67652795 28.28235325 -13.40843289 27.24117032 -17 24 C-20.40497766 20.14102532 -20.46451569 16.37957915 -20.2734375 11.43359375 C-19.87809558 7.91505068 -19.15724094 5.83137874 -17 3 C-11.729116 -1.07070619 -6.3476039 -2.05329146 0 0 Z " fill="#FAFAFA" transform="translate(153,289)"/>
</svg>
