<svg width="2197" height="501" viewBox="0 0 2197 501" fill="none" xmlns="http://www.w3.org/2000/svg">
<path fill-rule="evenodd" clip-rule="evenodd" d="M1070.38 275.57V6.17999C1070.38 2.54999 1067.14 -0.210026 1063.56 0.349974L1013.1 8.28998C1010.23 8.73998 1008.11 11.22 1008.11 14.13L1008.28 287.35C1008.28 300.27 1008.28 380.05 1104.25 382.84C1107.58 382.94 1110.34 380.26 1110.34 376.93V336.15C1110.34 333.19 1108.15 330.64 1105.22 330.31C1070.37 326.3 1070.37 282.74 1070.37 275.59L1070.38 275.57Z" fill="#003DFF"/>
<path d="M1902.56 105.01H1851.78C1848.52 105.01 1845.88 107.652 1845.88 110.91V377.01C1845.88 380.268 1848.52 382.91 1851.78 382.91H1902.56C1905.81 382.91 1908.46 380.268 1908.46 377.01V110.91C1908.46 107.652 1905.81 105.01 1902.56 105.01Z" fill="#003DFF"/>
<path fill-rule="evenodd" clip-rule="evenodd" d="M1851.78 71.6501H1902.55C1905.81 71.6501 1908.45 69.01 1908.45 65.75V6.18003C1908.45 2.56003 1905.21 -0.209989 1901.63 0.350011L1850.86 8.30002C1847.99 8.75002 1845.87 11.22 1845.87 14.13V65.75C1845.87 69.01 1848.51 71.6501 1851.77 71.6501H1851.78Z" fill="#003DFF"/>
<path fill-rule="evenodd" clip-rule="evenodd" d="M1764.03 275.57V6.17999C1764.03 2.54999 1760.79 -0.210026 1757.21 0.349974L1706.75 8.28998C1703.88 8.73998 1701.76 11.22 1701.76 14.13L1701.93 287.35C1701.93 300.27 1701.93 380.05 1797.9 382.84C1801.23 382.94 1803.99 380.26 1803.99 376.93V336.15C1803.99 333.19 1801.8 330.64 1798.87 330.31C1764.02 326.3 1764.02 282.74 1764.02 275.59L1764.03 275.57Z" fill="#003DFF"/>
<path fill-rule="evenodd" clip-rule="evenodd" d="M1631.95 143C1620.81 130.75 1607.12 121.35 1591.17 114.69C1575.25 108.16 1557.91 104.84 1539.1 104.84C1520.32 104.84 1502.95 108.01 1487.18 114.69C1471.59 121.35 1457.89 130.74 1446.42 143C1434.95 155.23 1426.04 169.87 1419.66 187.03C1413.28 204.2 1410.42 224.4 1410.42 245.39C1410.42 266.38 1413.61 282.26 1419.97 299.6C1426.35 316.92 1435.11 331.71 1446.42 343.96C1457.71 356.19 1471.25 365.58 1487.02 372.42C1502.79 379.25 1527.14 382.75 1539.42 382.9C1551.67 382.9 1576.2 379.08 1592.12 372.42C1608.04 365.74 1621.58 356.19 1632.9 343.96C1644.19 331.71 1652.95 316.92 1659.15 299.6C1665.37 282.26 1668.39 266.38 1668.39 245.39C1668.39 224.4 1665.05 204.2 1658.36 187.03C1651.98 169.86 1643.22 155.23 1631.93 143H1631.95ZM1587.52 306.75C1576.05 322.5 1559.96 330.45 1539.43 330.45C1518.88 330.45 1502.8 322.65 1491.33 306.75C1479.86 291 1474.12 272.74 1474.12 245.55C1474.12 218.66 1479.71 196.41 1491.18 180.68C1502.63 164.93 1518.72 157.16 1539.25 157.16C1559.8 157.16 1575.88 164.94 1587.34 180.68C1598.81 196.25 1604.7 218.66 1604.7 245.55C1604.7 272.74 1598.98 290.85 1587.51 306.75H1587.52Z" fill="#003DFF"/>
<path fill-rule="evenodd" clip-rule="evenodd" d="M894.416 105.01H845.086C796.726 105.01 754.176 130.49 729.336 169.11C714.816 191.69 706.346 218.74 706.346 247.84C706.346 292.73 726.476 332.76 757.936 358.94C760.866 361.54 763.986 363.92 767.246 366.08C780.106 374.57 795.356 379.55 811.766 379.55C812.996 379.55 814.226 379.52 815.446 379.46C815.806 379.44 816.156 379.41 816.516 379.39C817.386 379.34 818.266 379.28 819.136 379.19C819.476 379.16 819.816 379.11 820.156 379.07C821.066 378.97 821.976 378.86 822.886 378.73C823.096 378.7 823.306 378.66 823.516 378.63C856.406 373.56 885.076 347.81 894.416 315.82V373.65C894.416 376.91 897.056 379.55 900.316 379.55H950.736C953.996 379.55 956.636 376.91 956.636 373.65V110.91C956.636 107.65 953.996 105.01 950.736 105.01H894.416ZM894.416 311.93C882.216 322.09 866.446 325.91 849.576 327.05C849.416 327.06 849.246 327.08 849.086 327.09C847.966 327.16 846.846 327.19 845.726 327.19C803.486 327.19 768.606 291.3 768.606 247.82C768.606 237.57 770.566 227.81 774.026 218.84C785.246 189.72 812.796 169.1 845.086 169.1H894.416V311.93Z" fill="#003DFF"/>
<path fill-rule="evenodd" clip-rule="evenodd" d="M2133.97 105.01H2084.64C2036.28 105.01 1993.73 130.49 1968.89 169.11C1954.37 191.69 1945.9 218.74 1945.9 247.84C1945.9 292.73 1966.03 332.76 1997.49 358.94C2000.42 361.54 2003.54 363.92 2006.8 366.08C2019.66 374.57 2034.91 379.55 2051.32 379.55C2052.55 379.55 2053.78 379.52 2055 379.46C2055.36 379.44 2055.71 379.41 2056.07 379.39C2056.94 379.34 2057.82 379.28 2058.69 379.19C2059.03 379.16 2059.37 379.11 2059.71 379.07C2060.62 378.97 2061.53 378.86 2062.44 378.73C2062.65 378.7 2062.86 378.66 2063.07 378.63C2095.96 373.56 2124.63 347.81 2133.97 315.82V373.65C2133.97 376.91 2136.61 379.55 2139.87 379.55H2190.29C2193.55 379.55 2196.19 376.91 2196.19 373.65V110.91C2196.19 107.65 2193.55 105.01 2190.29 105.01H2133.97ZM2133.97 311.93C2121.77 322.09 2106 325.91 2089.13 327.05C2088.97 327.06 2088.8 327.08 2088.64 327.09C2087.52 327.16 2086.4 327.19 2085.28 327.19C2043.04 327.19 2008.16 291.3 2008.16 247.82C2008.16 237.57 2010.12 227.81 2013.58 218.84C2024.8 189.72 2052.35 169.1 2084.64 169.1H2133.97V311.93Z" fill="#003DFF"/>
<path fill-rule="evenodd" clip-rule="evenodd" d="M1314.05 105.01H1264.72C1216.36 105.01 1173.81 130.49 1148.97 169.11C1137.18 187.45 1129.37 208.75 1126.86 231.7C1126.28 237 1125.98 242.38 1125.98 247.84C1125.98 253.3 1126.29 258.99 1126.91 264.43C1131.19 302.52 1150.05 336.04 1177.57 358.95C1180.5 361.55 1183.62 363.93 1186.88 366.09C1199.74 374.58 1214.99 379.56 1231.4 379.56C1249.39 379.56 1266.01 373.63 1279.56 363.59C1295.85 352.01 1308.44 335.05 1314.04 315.84V366.1H1313.93V377.18C1313.93 399.02 1308.22 415.45 1296.59 426.54C1284.98 437.62 1265.55 443.17 1238.34 443.17C1227.22 443.17 1209.55 442.58 1191.74 440.76C1188.91 440.47 1186.28 442.26 1185.47 444.98L1172.69 488.09C1171.67 491.55 1173.96 495.11 1177.52 495.62C1199.04 498.7 1220.04 500.3 1232.17 500.3C1281.08 500.3 1317.33 489.55 1341.06 468.09C1362.54 448.68 1374.21 419.2 1376.26 379.57V110.93C1376.26 107.67 1373.62 105.03 1370.36 105.03H1314.04L1314.05 105.01ZM1314.05 169.11C1314.05 169.11 1314.7 308.24 1314.05 312.47C1301.97 322.24 1286.94 326.06 1270.56 327.17C1270.4 327.18 1270.23 327.2 1270.07 327.21C1268.95 327.28 1267.83 327.31 1266.71 327.31C1265.39 327.31 1264.08 327.28 1262.77 327.21C1222.36 325.1 1188.25 289.95 1188.25 247.83C1188.25 237.58 1190.21 227.82 1193.67 218.85C1204.89 189.73 1232.44 169.11 1264.73 169.11H1314.06H1314.05Z" fill="#003DFF"/>
<path d="M249.826 0.280029C113.296 0.280029 1.99635 110.36 0.0263477 246.43C-1.97365 384.62 110.146 499.13 248.356 499.93C291.036 500.18 332.146 489.74 368.656 469.9C372.216 467.97 372.766 463.07 369.736 460.39L346.356 439.67C341.606 435.46 334.846 434.27 328.996 436.75C303.516 447.59 275.826 453.13 247.286 452.78C135.606 451.41 45.3764 358.49 47.1563 246.82C48.9163 136.56 139.156 47.41 249.826 47.41H452.516V407.68L337.516 305.5C333.796 302.19 328.096 302.84 325.096 306.81C306.636 331.25 276.566 346.45 243.166 344.15C196.836 340.95 159.296 303.65 155.826 257.34C151.676 202.1 195.456 155.82 249.826 155.82C299.006 155.82 339.506 193.67 343.736 241.77C344.116 246.05 346.046 250.04 349.256 252.89L379.206 279.44C382.606 282.45 387.996 280.61 388.836 276.14C390.996 264.59 391.756 252.56 390.906 240.22C386.086 169.88 329.106 113.29 258.736 108.96C178.056 103.99 110.606 167.1 108.466 246.21C106.376 323.31 169.546 389.77 246.656 391.47C278.846 392.18 308.686 382.06 332.796 364.52L483.056 497.72C489.496 503.43 499.666 498.86 499.666 490.25V9.73999C499.666 4.49999 495.426 0.26001 490.186 0.26001H249.826V0.280029Z" fill="#003DFF"/>
</svg>
