<?xml version="1.0" encoding="UTF-8" standalone="no"?>
<svg xmlns="http://www.w3.org/2000/svg" version="1.1" x="0" y="0" width="568" height="140" viewBox="0 0 284 70">
  <g transform="translate(5,5)">
    <path fill="none" stroke="#008700" stroke-width="9" stroke-linecap="round" stroke-linejoin="round" d="M 0,0 20,0 0,20 0,40 40,0 60,0 0,60 20,60 60,20 60,40 40,60 60,60"/>
    <g>
      <path d="m106.24805 18.177246h-20.904788v10.010742h16.520998v8.342285h-16.520998v17.469727h-10.861328v-44.655762h31.766116z"/>
      <path d="m143.41211 18.177246h-20.90479v10.010742h16.521v8.342285h-16.521v17.469727h-10.86132v-44.655762h31.76611z"/>
      <path d="m162.75586 54-8.36719-27.716309v27.716309h-6.67383v-33.991699h12.40137l5.95166 20.345215 6.27539-20.345215h12.42627v33.991699h-8.01855v-27.716309l-8.54151 27.716309z"/>
      <path d="m199.63623 41.374512v12.625488h-8.09326v-33.991699h13.39746c2.98826 0.000034 5.27512 0.319614 6.8606 0.95874 1.58542 0.639193 3.0007 1.780549 4.24584 3.424072 1.24509 1.643583 1.86765 3.660671 1.86768 6.05127-0.00003 1.67678-0.33206 3.312032-0.99609 4.905762-0.66409 1.593767-1.60208 2.847183-2.81397 3.760253-1.21194 0.9131-2.3865 1.519057-3.52368 1.817872-1.13723 0.29884-2.91774 0.448254-5.34155 0.448242zm-0.27393-6.175782h5.17969c1.97557 0.000019 3.3618-0.456523 4.15869-1.369628 0.79686-0.913065 1.19529-1.958963 1.19532-3.137696-0.00003-1.377905-0.44412-2.473607-1.33228-3.287109-0.8882-0.813449-2.23708-1.220187-4.04663-1.220215h-5.15479z"/>
      <path d="m246.62695 26.48291h-16.21142v6.972656h12.75v6.399903h-12.75v7.420898h16.21142v6.723633h-24.30468v-33.991699h24.30468z"/>
      <path d="m277.9043 35.821289v18.178711h-3.63575c-0.26565-1.278319-0.64748-2.58154-1.1455-3.909668-2.42385 2.955079-5.51174 4.432617-9.26368 4.432617-4.43262 0-7.88159-1.585448-10.34692-4.756347-2.46533-3.170891-3.698-7.271473-3.698-12.301758 0-5.412088 1.31567-9.761693 3.94702-13.048828 2.63134-3.287077 6.20483-4.93063 10.72046-4.930664 3.78514 0.000034 6.83982 1.062533 9.16407 3.1875 2.32419 2.125029 3.74362 4.955592 4.2583 8.491699l-7.57032 0.996094c-0.61428-4.117162-2.56496-6.175754-5.85205-6.175782-2.15821 0.000028-3.78932 0.975369-4.89331 2.926026-1.10401 1.950706-1.65601 4.735616-1.656 8.354736-0.00001 3.486341 0.59764 6.150889 1.79297 7.993652 1.1953 1.842781 2.89695 2.764166 5.10498 2.76416 1.42771 0.000006 2.70188-0.464837 3.82251-1.394531 1.12058-0.929679 1.68088-2.415517 1.6809-4.457519h-6.3999v-6.350098z"/>
    </g>
  </g>
</svg>