<svg width="398" height="100" viewBox="0 0 398 100" fill="none" xmlns="http://www.w3.org/2000/svg">
<g clip-path="url(#clip0_2240_1785)">
<mask id="mask0_2240_1785" style="mask-type:luminance" maskUnits="userSpaceOnUse" x="0" y="0" width="398" height="100">
<path d="M398 0H0V100H398V0Z" fill="white"/>
</mask>
<g mask="url(#mask0_2240_1785)">
<mask id="mask1_2240_1785" style="mask-type:luminance" maskUnits="userSpaceOnUse" x="0" y="0" width="398" height="100">
<path d="M398 0H0V100H398V0Z" fill="white"/>
</mask>
<g mask="url(#mask1_2240_1785)">
<path fill-rule="evenodd" clip-rule="evenodd" d="M99.8889 0H-0.111084V100H99.8889V0ZM35.9167 27.7778V72.2222H52.4246C58.7738 72.2222 63.8531 67.1429 63.8531 60.7937V58.254C63.8531 54.6349 62.2023 51.4603 59.6627 49.3651C61.5039 47.3968 62.5833 44.6667 62.5833 41.746V39.2063C62.5833 32.8571 57.504 27.7778 51.1548 27.7778H35.9167ZM52.4246 65.873H42.2659V53.1746H52.4246C55.2818 53.1746 57.504 55.3968 57.504 58.254V60.7937C57.504 63.6508 55.2818 65.873 52.4246 65.873ZM51.1548 46.8254H42.2659V34.127H51.1548C54.0119 34.127 56.2342 36.3492 56.2342 39.2063V41.746C56.2342 44.6032 54.0119 46.8254 51.1548 46.8254Z" fill="#F03603"/>
<path d="M127.667 66.6667V33.8028H138.934C143.629 33.8028 147.385 37.5587 147.385 42.2535V44.1314C147.385 46.2911 146.587 48.3099 145.225 49.7653C147.103 51.3145 148.324 53.662 148.324 56.338V58.216C148.324 62.9108 144.568 66.6667 139.873 66.6667H127.667ZM132.362 61.9718H139.873C141.986 61.9718 143.629 60.3286 143.629 58.216V56.338C143.629 54.2253 141.986 52.5822 139.873 52.5822H132.362V61.9718ZM132.362 47.8873H138.934C141.047 47.8873 142.69 46.2441 142.69 44.1314V42.2535C142.69 40.1408 141.047 38.4976 138.934 38.4976H132.362V47.8873Z" fill="#100D0D"/>
<path d="M153.205 66.6667V42.723H157.9V46.338L163.205 42.723H164.567C168.886 42.723 172.454 46.4789 172.454 51.1737V53.0516H167.759V51.1737C167.759 49.108 166.445 47.4178 164.567 47.4178H164.144L157.9 51.5962V66.6667H153.205Z" fill="#100D0D"/>
<path d="M183.873 66.6667C179.179 66.6667 175.423 62.9577 175.423 58.2629V51.1737C175.423 46.4789 179.179 42.723 183.873 42.723H187.629C192.324 42.723 196.08 46.4789 196.08 51.1737V58.2629C196.08 62.9577 192.324 66.6667 187.629 66.6667H183.873ZM180.118 58.2629C180.118 60.3756 181.761 61.9249 183.873 61.9718H187.629C189.742 61.9718 191.385 60.3756 191.385 58.2629V51.1737C191.385 49.061 189.742 47.4178 187.629 47.4178H183.873C181.761 47.4178 180.118 49.061 180.118 51.1737V58.2629Z" fill="#100D0D"/>
<path d="M204.635 66.6667L200.175 53.5211V42.723H204.87V52.1127L207.217 59.5775L211.208 46.9484H215.058L219.048 59.5775L221.396 52.1127V42.723H226.091V53.5211L221.631 66.6667H217.64L213.133 55.446L208.626 66.6667H204.635Z" fill="#100D0D"/>
<path d="M237.677 66.6667C233.123 66.6667 229.743 63.7089 229.743 59.7183V58.7793H234.438V59.7183C234.438 61.2207 235.658 62.3005 237.677 62.3005H241.949C244.156 62.3005 245.236 61.4084 245.236 60.0469C245.236 54.7418 230.071 58.169 230.071 49.061C230.071 45.2582 233.123 42.723 237.583 42.723H241.621C245.846 42.723 249.132 45.7746 249.132 49.7183V50.1408H244.438V49.7183C244.438 48.216 243.264 47.0892 241.621 47.0892H237.583C235.611 47.0892 234.766 47.8873 234.766 49.061C234.766 52.8638 249.93 50.4695 249.93 60.0469C249.93 63.9906 246.691 66.6667 241.949 66.6667H237.677Z" fill="#100D0D"/>
<path d="M262.136 66.6667C257.488 66.6667 253.685 62.8169 253.685 58.169V51.1737C253.685 46.4789 257.488 42.723 262.136 42.723H265.892C270.446 42.723 274.108 46.2441 274.343 50.7042V55.7746H258.38V58.169C258.38 60.2347 260.07 61.9249 262.136 61.9249H265.892C267.958 61.9249 269.648 60.2347 269.648 58.169V57.6995H274.343V58.169C274.343 62.8169 270.587 66.6667 265.892 66.6667H262.136ZM258.38 52.0188H269.648V51.1737C269.648 49.061 268.004 47.4178 265.892 47.4178H262.136C260.023 47.4178 258.38 49.108 258.38 51.1737V52.0188Z" fill="#100D0D"/>
<path d="M279.425 66.6667V42.723H284.12V46.338L289.425 42.723H290.786C295.105 42.723 298.674 46.4789 298.674 51.1737V53.0516H293.979V51.1737C293.979 49.108 292.664 47.4178 290.786 47.4178H290.364L284.12 51.5962V66.6667H279.425Z" fill="#100D0D"/>
<path d="M311.032 66.6667L307.135 64.0376V66.6667H302.44V33.3333H307.135V45.3521L311.032 42.723H314.647C319.295 42.723 323.098 46.4789 323.098 51.1737V58.216C323.098 62.8638 319.295 66.6667 314.647 66.6667H311.032ZM307.135 58.3568L312.487 61.9718H314.647C316.713 61.9718 318.403 60.2817 318.403 58.216V51.1737C318.403 49.108 316.713 47.4178 314.647 47.4178H312.487L307.135 51.0329V58.3568Z" fill="#100D0D"/>
<path d="M335.86 66.6667C331.212 66.6667 327.409 62.8638 327.409 58.216V51.1737C327.409 46.4789 331.212 42.723 335.86 42.723H339.475L343.371 45.3521V42.723H348.066V66.6667H343.371V64.0376L339.475 66.6667H335.86ZM332.104 58.216C332.104 60.2817 333.794 61.9718 335.86 61.9718H338.019L343.371 58.3568V51.0329L338.019 47.4178H335.86C333.794 47.4178 332.104 49.108 332.104 51.1737V58.216Z" fill="#100D0D"/>
<path d="M360.687 66.6667C356.133 66.6667 352.753 63.7089 352.753 59.7183V58.7793H357.448V59.7183C357.448 61.2207 358.668 62.3005 360.687 62.3005H364.959C367.166 62.3005 368.246 61.4084 368.246 60.0469C368.246 54.7418 353.082 58.169 353.082 49.061C353.082 45.2582 356.133 42.723 360.593 42.723H364.631C368.856 42.723 372.143 45.7746 372.143 49.7183V50.1408H367.448V49.7183C367.448 48.216 366.274 47.0892 364.631 47.0892H360.593C358.621 47.0892 357.776 47.8873 357.776 49.061C357.776 52.8638 372.941 50.4695 372.941 60.0469C372.941 63.9906 369.701 66.6667 364.959 66.6667H360.687Z" fill="#100D0D"/>
<path d="M385.146 66.6667C380.498 66.6667 376.695 62.8169 376.695 58.169V51.1737C376.695 46.4789 380.498 42.723 385.146 42.723H388.902C393.456 42.723 397.118 46.2441 397.353 50.7042V55.7746H381.39V58.169C381.39 60.2347 383.08 61.9249 385.146 61.9249H388.902C390.968 61.9249 392.658 60.2347 392.658 58.169V57.6995H397.353V58.169C397.353 62.8169 393.597 66.6667 388.902 66.6667H385.146ZM381.39 52.0188H392.658V51.1737C392.658 49.061 391.015 47.4178 388.902 47.4178H385.146C383.033 47.4178 381.39 49.108 381.39 51.1737V52.0188Z" fill="#100D0D"/>
</g>
</g>
</g>
<defs>
<clipPath id="clip0_2240_1785">
<rect width="398" height="100" fill="white"/>
</clipPath>
</defs>
</svg>
