<svg width="740" height="255" viewBox="0 0 740 255" fill="none" xmlns="http://www.w3.org/2000/svg">
<path fill-rule="evenodd" clip-rule="evenodd" d="M185.245 93.7901C190.431 88.6034 190.431 80.1942 185.245 75.0075L134.675 24.4376C129.488 19.2509 121.079 19.2509 115.892 24.4376C110.706 29.6242 110.706 38.0334 115.892 43.2201L166.462 93.7901C171.649 98.9767 180.058 98.9767 185.245 93.7901ZM184.154 47.8518C176.819 47.8518 170.873 41.9055 170.873 34.5705C170.873 27.2355 176.819 21.2893 184.154 21.2893C191.489 21.2893 197.435 27.2355 197.435 34.5705C197.435 41.9055 191.489 47.8518 184.154 47.8518ZM76.6176 236.253C69.2825 236.253 63.3363 230.307 63.3363 222.972C63.3363 215.637 69.2825 209.691 76.6176 209.691C83.9526 209.691 89.8988 215.637 89.8988 222.972C89.8988 230.307 83.9526 236.253 76.6176 236.253ZM176.238 125.392C181.425 130.579 181.425 138.988 176.238 144.175C171.051 149.362 162.642 149.362 157.455 144.175L57.014 43.7336C51.8273 38.5469 51.8273 30.1377 57.014 24.9511C62.2006 19.7644 70.6099 19.7644 75.7965 24.9511L176.238 125.392ZM167.48 194.445C172.667 189.258 172.667 180.849 167.48 175.663L77.9483 86.1306C72.7617 80.944 64.3525 80.944 59.1658 86.1306C53.9792 91.3173 53.9792 99.7265 59.1658 104.913L148.698 194.445C153.884 199.632 162.294 199.632 167.48 194.445ZM142.267 209.194C147.454 214.381 147.454 222.79 142.267 227.976C137.081 233.163 128.672 233.163 123.485 227.976L63.0715 167.563C57.8848 162.376 57.8848 153.967 63.0715 148.78C68.2581 143.594 76.6673 143.594 81.854 148.78L142.267 209.194Z" fill="black"/>
<path fill-rule="evenodd" clip-rule="evenodd" d="M250.412 218.18V240.875H275.912C283.902 240.875 290.107 238.58 294.527 233.99C298.947 229.4 301.157 223.28 301.157 215.63V64.1601H274.892V210.53C274.892 215.63 272.427 218.18 267.497 218.18H250.412ZM337.319 185.795C344.799 190.045 353.299 192.17 362.819 192.17C374.719 192.17 383.729 189.96 389.849 185.54C395.969 180.95 400.219 176.105 402.599 171.005H406.679V189.875H432.434V64.1601H406.169V127.655C406.169 141.255 402.854 151.71 396.224 159.02C389.764 166.16 381.179 169.73 370.469 169.73C360.779 169.73 353.214 167.18 347.774 162.08C342.334 156.81 339.614 148.735 339.614 137.855V64.1601H313.349V139.64C313.349 150.52 315.474 159.87 319.724 167.69C323.974 175.51 329.839 181.545 337.319 185.795ZM445.76 11.3751V189.875H472.025V11.3751H445.76ZM509.729 185.54C519.249 190.81 530.384 193.445 543.134 193.445C554.524 193.445 563.874 191.66 571.184 188.09C578.494 184.52 584.359 180.1 588.779 174.83C593.369 169.56 596.854 164.545 599.234 159.785L577.559 148.565C574.839 154.345 570.929 159.445 565.829 163.865C560.899 168.285 553.504 170.495 543.644 170.495C533.104 170.495 524.264 167.265 517.124 160.805C510.154 154.175 506.499 145.335 506.159 134.285H602.804V124.34C602.804 111.59 600.254 100.455 595.154 90.9351C590.054 81.4151 582.914 74.0201 573.734 68.7501C564.724 63.3101 554.184 60.5901 542.114 60.5901C529.704 60.5901 518.739 63.3101 509.219 68.7501C499.869 74.0201 492.559 81.5851 487.289 91.4451C482.019 101.135 479.384 112.525 479.384 125.615V128.675C479.384 141.595 482.019 152.985 487.289 162.845C492.729 172.535 500.209 180.1 509.729 185.54ZM576.029 114.14H506.414C507.774 104.62 511.514 97.2251 517.634 91.9551C523.924 86.5151 531.999 83.7951 541.859 83.7951C551.719 83.7951 559.709 86.5151 565.829 91.9551C571.949 97.2251 575.349 104.62 576.029 114.14ZM608.92 64.1601V240.875H635.185V172.79H639.265C641.305 176.19 644.025 179.505 647.425 182.735C650.825 185.795 655.33 188.345 660.94 190.385C666.55 192.425 673.435 193.445 681.595 193.445C692.135 193.445 701.825 190.895 710.665 185.795C719.505 180.695 726.56 173.385 731.83 163.865C737.1 154.175 739.735 142.53 739.735 128.93V125.105C739.735 111.505 737.015 99.9451 731.575 90.4251C726.305 80.7351 719.25 73.3401 710.41 68.2401C701.74 63.1401 692.135 60.5901 681.595 60.5901C669.355 60.5901 659.92 62.8001 653.29 67.2201C646.83 71.6401 641.985 76.6551 638.755 82.2651H634.675V64.1601H608.92ZM702.25 159.53C694.94 166.84 685.505 170.495 673.945 170.495C662.725 170.495 653.375 166.84 645.895 159.53C638.585 152.22 634.93 141.765 634.93 128.165V125.87C634.93 112.44 638.585 102.07 645.895 94.7601C653.375 87.4501 662.725 83.7951 673.945 83.7951C685.335 83.7951 694.685 87.4501 701.995 94.7601C709.475 102.07 713.215 112.44 713.215 125.87V128.165C713.215 141.765 709.56 152.22 702.25 159.53Z" fill="black"/>
<circle cx="13.2812" cy="13.2812" r="13.2812" transform="matrix(-1 2.18557e-08 2.18557e-08 1 301.755 21.2892)" fill="black"/>
</svg>
