<svg width="255" height="255" viewBox="0 0 255 255" fill="none" xmlns="http://www.w3.org/2000/svg">
<rect width="255" height="255" fill="#222222"/>
<path fill-rule="evenodd" clip-rule="evenodd" d="M185.245 93.7901C190.431 88.6034 190.431 80.1942 185.245 75.0076L134.675 24.4376C129.488 19.2509 121.079 19.2509 115.892 24.4376C110.706 29.6242 110.706 38.0335 115.892 43.2201L166.462 93.7901C171.649 98.9767 180.058 98.9767 185.245 93.7901ZM184.154 47.8518C176.819 47.8518 170.873 41.9056 170.873 34.5705C170.873 27.2355 176.819 21.2893 184.154 21.2893C191.489 21.2893 197.435 27.2355 197.435 34.5705C197.435 41.9056 191.489 47.8518 184.154 47.8518ZM76.6175 236.253C69.2825 236.253 63.3363 230.307 63.3363 222.972C63.3363 215.637 69.2825 209.691 76.6175 209.691C83.9526 209.691 89.8988 215.637 89.8988 222.972C89.8988 230.307 83.9526 236.253 76.6175 236.253ZM176.238 125.392C181.424 130.579 181.424 138.988 176.238 144.175C171.051 149.362 162.642 149.362 157.455 144.175L57.0139 43.7336C51.8273 38.547 51.8273 30.1377 57.0139 24.9511C62.2006 19.7644 70.6098 19.7644 75.7965 24.9511L176.238 125.392ZM167.48 194.445C172.667 189.258 172.667 180.849 167.48 175.663L77.9483 86.1306C72.7617 80.944 64.3524 80.944 59.1658 86.1306C53.9791 91.3173 53.9791 99.7265 59.1658 104.913L148.698 194.445C153.884 199.632 162.294 199.632 167.48 194.445ZM142.267 209.194C147.454 214.381 147.454 222.79 142.267 227.976C137.081 233.163 128.672 233.163 123.485 227.976L63.0714 167.563C57.8848 162.376 57.8848 153.967 63.0714 148.78C68.2581 143.594 76.6673 143.594 81.854 148.78L142.267 209.194Z" fill="white"/>
<path d="M185.245 75.0076L185.952 74.3004L185.952 74.3004L185.245 75.0076ZM185.245 93.7901L185.952 94.4972L185.952 94.4972L185.245 93.7901ZM134.675 24.4376L135.382 23.7305L135.382 23.7305L134.675 24.4376ZM115.892 24.4376L116.599 25.1447L116.599 25.1447L115.892 24.4376ZM115.892 43.2201L116.599 42.513L116.599 42.513L115.892 43.2201ZM166.462 93.7901L165.755 94.4972L165.755 94.4972L166.462 93.7901ZM184.154 21.2893L184.154 20.2893L184.154 21.2893ZM176.238 144.175L175.531 143.468L175.531 143.468L176.238 144.175ZM176.238 125.392L175.531 126.1L175.531 126.1L176.238 125.392ZM157.455 144.175L158.162 143.468L158.162 143.468L157.455 144.175ZM57.0139 43.7336L57.7211 43.0265L57.0139 43.7336ZM57.0139 24.9511L56.3068 24.244L57.0139 24.9511ZM75.7965 24.9511L75.0894 25.6582L75.7965 24.9511ZM167.48 175.663L168.187 174.956L168.187 174.956L167.48 175.663ZM167.48 194.445L166.773 193.738L166.773 193.738L167.48 194.445ZM77.9483 86.1306L78.6554 85.4235L78.6554 85.4235L77.9483 86.1306ZM59.1658 86.1306L59.8729 86.8378L59.8729 86.8378L59.1658 86.1306ZM59.1658 104.913L58.4587 105.62L58.4587 105.62L59.1658 104.913ZM148.698 194.445L149.405 193.738L149.405 193.738L148.698 194.445ZM142.267 227.976L141.56 227.269L141.56 227.269L142.267 227.976ZM142.267 209.194L142.975 208.487L142.974 208.487L142.267 209.194ZM123.485 227.976L124.192 227.269L124.192 227.269L123.485 227.976ZM63.0714 167.563L63.7785 166.856L63.7785 166.856L63.0714 167.563ZM81.854 148.78L82.5611 148.073L82.5611 148.073L81.854 148.78ZM184.538 75.7147C189.334 80.5108 189.334 88.2868 184.538 93.083L185.952 94.4972C191.529 88.92 191.529 79.8776 185.952 74.3004L184.538 75.7147ZM133.968 25.1447L184.538 75.7147L185.952 74.3004L135.382 23.7305L133.968 25.1447ZM116.599 25.1447C121.395 20.3486 129.171 20.3486 133.968 25.1447L135.382 23.7305C129.805 18.1533 120.762 18.1533 115.185 23.7305L116.599 25.1447ZM116.599 42.513C111.803 37.7169 111.803 29.9408 116.599 25.1447L115.185 23.7305C109.608 29.3077 109.608 38.35 115.185 43.9272L116.599 42.513ZM167.169 93.083L116.599 42.513L115.185 43.9272L165.755 94.4972L167.169 93.083ZM184.538 93.083C179.741 97.8791 171.965 97.8791 167.169 93.083L165.755 94.4972C171.332 100.074 180.375 100.074 185.952 94.4972L184.538 93.083ZM169.873 34.5705C169.873 42.4578 176.267 48.8518 184.154 48.8518V46.8518C177.371 46.8518 171.873 41.3533 171.873 34.5705H169.873ZM184.154 20.2893C176.267 20.2893 169.873 26.6832 169.873 34.5705H171.873C171.873 27.7878 177.371 22.2893 184.154 22.2893L184.154 20.2893ZM198.435 34.5705C198.435 26.6832 192.041 20.2893 184.154 20.2893L184.154 22.2893C190.937 22.2893 196.435 27.7878 196.435 34.5705H198.435ZM184.154 48.8518C192.041 48.8518 198.435 42.4578 198.435 34.5705H196.435C196.435 41.3533 190.937 46.8518 184.154 46.8518V48.8518ZM62.3363 222.972C62.3363 230.86 68.7302 237.253 76.6175 237.253V235.253C69.8348 235.253 64.3363 229.755 64.3363 222.972H62.3363ZM76.6175 208.691C68.7302 208.691 62.3363 215.085 62.3363 222.972H64.3363C64.3363 216.189 69.8348 210.691 76.6175 210.691V208.691ZM90.8988 222.972C90.8988 215.085 84.5049 208.691 76.6175 208.691V210.691C83.4003 210.691 88.8988 216.189 88.8988 222.972H90.8988ZM76.6175 237.253C84.5049 237.253 90.8988 230.86 90.8988 222.972H88.8988C88.8988 229.755 83.4003 235.253 76.6175 235.253V237.253ZM176.945 144.882C182.522 139.305 182.522 130.263 176.945 124.685L175.531 126.1C180.327 130.896 180.327 138.672 175.531 143.468L176.945 144.882ZM156.748 144.882C162.325 150.459 171.368 150.459 176.945 144.882L175.531 143.468C170.735 148.264 162.959 148.264 158.162 143.468L156.748 144.882ZM56.3068 44.4407L156.748 144.882L158.162 143.468L57.7211 43.0265L56.3068 44.4407ZM56.3068 24.244C50.7297 29.8212 50.7297 38.8635 56.3068 44.4407L57.7211 43.0265C52.9249 38.2304 52.9249 30.4543 57.7211 25.6582L56.3068 24.244ZM76.5036 24.244C70.9264 18.6668 61.884 18.6668 56.3068 24.244L57.7211 25.6582C62.5172 20.8621 70.2932 20.8621 75.0894 25.6582L76.5036 24.244ZM176.945 124.685L76.5036 24.244L75.0894 25.6582L175.531 126.1L176.945 124.685ZM166.773 176.37C171.569 181.166 171.569 188.942 166.773 193.738L168.187 195.152C173.765 189.575 173.765 180.533 168.187 174.956L166.773 176.37ZM77.2412 86.8378L166.773 176.37L168.187 174.956L78.6554 85.4235L77.2412 86.8378ZM59.8729 86.8378C64.669 82.0416 72.4451 82.0416 77.2412 86.8378L78.6554 85.4235C73.0782 79.8464 64.0358 79.8464 58.4587 85.4235L59.8729 86.8378ZM59.8729 104.206C55.0768 99.4099 55.0768 91.6339 59.8729 86.8378L58.4587 85.4235C52.8815 91.0007 52.8815 100.043 58.4587 105.62L59.8729 104.206ZM149.405 193.738L59.8729 104.206L58.4587 105.62L147.991 195.152L149.405 193.738ZM166.773 193.738C161.977 198.534 154.201 198.534 149.405 193.738L147.991 195.152C153.568 200.729 162.61 200.729 168.187 195.152L166.773 193.738ZM142.974 228.684C148.552 223.106 148.552 214.064 142.975 208.487L141.56 209.901C146.356 214.697 146.356 222.473 141.56 227.269L142.974 228.684ZM122.778 228.684C128.355 234.261 137.397 234.261 142.975 228.684L141.56 227.269C136.764 232.065 128.988 232.065 124.192 227.269L122.778 228.684ZM62.3643 168.27L122.778 228.684L124.192 227.269L63.7785 166.856L62.3643 168.27ZM62.3643 148.073C56.7872 153.651 56.7872 162.693 62.3643 168.27L63.7785 166.856C58.9824 162.06 58.9824 154.284 63.7785 149.488L62.3643 148.073ZM82.5611 148.073C76.9839 142.496 67.9415 142.496 62.3643 148.073L63.7785 149.488C68.5747 144.691 76.3507 144.691 81.1468 149.488L82.5611 148.073ZM142.974 208.487L82.5611 148.073L81.1468 149.488L141.56 209.901L142.974 208.487Z" fill="black" fill-opacity="0.9"/>
</svg>
